<svg width="40" height="40" viewBox="0 0 40 40" fill="none" xmlns="http://www.w3.org/2000/svg">
<path d="M35.5 7.08337H4.26664C1.63336 7.08337 0 8.61666 0 11.075V28.9167C0 31.3083 1.66664 32.9167 4.15 32.9167H35.5C38.0666 32.9167 40 31.2 40 28.9167V11.075C40 8.65001 38.2334 7.08337 35.5 7.08337ZM4.275 8.75002H35.5C35.9666 8.75002 36.7834 8.83337 37.4166 9.25002L20.6916 22.7L2.53336 9.19166C2.95836 8.90837 3.53336 8.75002 4.275 8.75002ZM38.3334 28.9167C38.3334 30.45 36.9084 31.25 35.5 31.25H4.15C2.59164 31.25 1.66664 30.375 1.66664 28.9167V11.075C1.66664 10.9334 1.68328 10.7834 1.7 10.6417L20.2166 24.4167C20.525 24.6417 20.9416 24.6333 21.2333 24.4L38.2833 10.6917C38.3083 10.8167 38.3249 10.95 38.3333 11.0833L38.3334 28.9167Z" fill="#63F3AB"/>
</svg>
