<svg width="250" height="76" viewBox="0 0 250 76" fill="none" xmlns="http://www.w3.org/2000/svg">
<path d="M18.203 0.169815C12.5425 0.675339 7.95003 4.21402 4.71929 10.5584C1.9558 15.9422 0.634134 21.8063 0.100126 30.9311C-0.0333755 33.2059 -0.0333755 34.3939 0.100126 36.8205C0.620783 46.5266 2.0092 52.5676 4.91954 57.8756C7.28252 62.1979 9.93921 64.6497 13.8108 66.141C15.6664 66.8234 19.9118 67.0762 22.3282 66.6212C23.9169 66.3432 26.3466 65.5596 26.4801 65.3069C26.5468 65.1805 24.9715 57.547 24.8113 57.1932C24.7579 57.0668 24.2106 57.1679 23.5964 57.3701C17.8959 59.3164 13.0098 56.3085 10.58 49.3828C8.16364 42.5329 7.73643 30.5014 9.59211 22.0338C10.9405 15.917 13.3836 11.8727 16.8947 9.95174C17.8292 9.42094 18.2297 9.37039 20.6728 9.37039C22.742 9.37039 23.6498 9.47149 24.4108 9.80009C25.6657 10.3309 27.8418 11.6453 28.803 12.4288C29.1902 12.7574 29.5373 13.0355 29.564 13.0355C29.604 13.0355 29.604 10.6848 29.5907 7.77798L29.5506 2.54578L28.4159 1.98971C25.4254 0.498405 21.8476 -0.133507 18.203 0.169815Z" fill="#87888E"/>
<path d="M97.1426 0.1427C93.5113 1.38123 91.0549 5.75401 90.067 12.6544C89.7866 14.6512 89.7733 15.0809 89.6798 40.4582C89.6398 54.6381 89.573 68.3883 89.5597 71.0423L89.533 75.8448L92.9106 75.9206L96.2748 75.9712L96.1814 71.8765C96.0612 66.619 95.9678 34.5183 96.0612 31.9148L96.128 29.9686H99.4522C102.015 29.9686 102.776 29.8927 102.776 29.64C102.776 29.4883 102.923 27.5421 103.097 25.343L103.404 21.3747H99.7325H96.0612L96.1413 18.3921C96.2748 12.9577 97.1426 10.0762 98.9582 8.98936C99.7325 8.50911 102.99 8.78715 104.151 9.44433L105.046 9.92458L105.113 9.39378C105.166 8.9388 105.713 1.76038 105.713 1.53289C105.713 1.43179 104.018 0.6735 103.043 0.395462C101.882 0.0163193 97.9303 -0.135338 97.1426 0.1427Z" fill="#87888E"/>
<path d="M39.897 21.275C36.6262 22.1849 34.3033 24.3334 32.2741 28.3776C30.2849 32.3207 29.2836 37.1485 29.1635 43.2907C28.9365 56.1311 32.9015 65.2053 39.4565 66.8735C41.3121 67.3537 44.3159 67.0757 45.918 66.2921C48.5079 65.003 50.2835 63.1326 51.8721 59.9478C54.1417 55.4486 55.1029 49.9889 54.9427 42.5829C54.8626 38.3618 54.5555 36.0364 53.621 32.4977C52.0724 26.6336 49.122 22.8168 45.1436 21.5025C44.1157 21.1486 40.8315 21.0222 39.897 21.275ZM43.822 29.3381C45.4107 30.1217 46.6522 32.1944 47.4532 35.3539C48.1608 38.1849 48.3477 40.2828 48.2676 44.7567C48.2275 47.9668 48.1608 48.8515 47.8671 50.5955C46.7991 56.763 44.2091 60.0489 41.2053 59.0884C38.1615 58.1026 36.3192 53.8309 35.8786 46.7535C35.5315 41.2938 36.3325 35.5561 37.8678 32.4471C39.3363 29.4645 41.6326 28.2765 43.822 29.3381Z" fill="#87888E"/>
<path d="M115.793 21.2756C115.646 21.3262 115.192 21.5031 114.792 21.6548C110.92 23.045 107.743 27.6199 106.234 33.9137C104.699 40.3085 104.766 49.0793 106.408 55.3478C107.048 57.7996 107.302 58.5073 108.25 60.403C110.453 64.8263 113.724 67.1265 117.862 67.1265C120.799 67.1265 123.416 65.9132 125.525 63.5625C126.767 62.1724 128.596 58.6842 129.33 56.3336C129.984 54.2609 130.598 50.8234 130.825 48.1188C131.052 45.389 130.905 39.4239 130.558 37.0479C129.37 29.1112 126.646 24.1318 122.281 21.9581C121.173 21.402 120.666 21.3009 118.53 21.2251C117.168 21.1998 115.94 21.1998 115.793 21.2756ZM120.439 29.6926C121.493 30.4761 122.628 32.5235 123.256 34.7478C124.017 37.5029 124.284 39.8536 124.284 43.8725C124.284 47.765 124.03 50.2168 123.309 52.9719C122.802 54.9434 121.533 57.4457 120.639 58.2293C118.556 60.0492 115.819 59.3162 114.191 56.4852C112.535 53.6038 111.801 49.7365 111.814 44.1252C111.841 36.2391 113.537 30.9311 116.54 29.3387C117.568 28.8079 119.437 28.9596 120.439 29.6926Z" fill="#87888E"/>
<path d="M67.6787 21.6499C66.3971 21.9533 65.0354 22.8127 64.0608 23.8995C63.0729 24.9864 61.7512 27.4888 61.2039 29.2834C60.79 30.5977 60.256 33.3023 60.0424 35.198C59.9623 35.8805 59.8555 42.149 59.7887 49.555C59.722 56.784 59.6285 63.4064 59.5751 64.2657L59.4817 65.8582H62.9928H66.5039L66.4238 63.8866C66.3036 61.1315 66.1301 47.6087 66.1434 42.4776C66.1568 35.3497 66.7709 32.7968 68.8669 30.8758C69.6679 30.1428 69.8414 30.0922 71.1364 30.0922C72.2712 30.0922 72.685 30.2186 73.2858 30.6736C74.8478 31.8616 75.7823 34.3386 76.0893 38.0542C76.2495 39.9247 76.1961 49.5044 75.9825 61.1062L75.9024 65.8582H79.2667H82.6309L82.5909 50.8693C82.5375 36.1838 82.5375 35.8805 82.2304 33.8837C81.149 26.7052 78.5591 22.5346 74.6075 21.6247C73.2991 21.3214 68.9336 21.3466 67.6787 21.6499Z" fill="#87888E"/>
<path d="M144.309 21.65C139.69 22.661 137.433 26.9833 136.833 35.9564C136.766 36.8916 136.699 40.8094 136.699 44.6261C136.686 48.4428 136.619 54.3069 136.552 57.6434C136.486 60.9798 136.419 64.1899 136.419 64.7713V65.8582H139.89H143.374L143.308 65.024C143.121 62.7239 143.067 59.4885 143.081 49.555C143.081 39.5709 143.107 38.5345 143.348 36.7399C143.655 34.4651 143.882 33.5804 144.456 32.3418C145.056 31.0528 146.018 30.2186 147.072 30.0417C148.1 29.8901 150.33 30.522 150.797 31.1286C150.971 31.3308 151.104 31.4572 151.104 31.3814C151.104 31.3308 151.251 29.4351 151.438 27.1602C151.825 22.5599 151.865 22.838 150.77 22.383C148.594 21.4731 146.298 21.2203 144.309 21.65Z" fill="#87888E"/>
<path d="M163.386 21.6528C161.023 22.133 157.379 23.599 157.379 24.1045C157.379 24.3826 157.913 31.3082 157.993 31.9401C158.046 32.4709 158.073 32.4709 158.42 32.1676C159.822 30.8027 162.812 29.4883 164.855 29.3114C168.967 28.9322 170.769 31.384 170.782 37.3744L170.796 39.1185L167.324 39.1943C162.665 39.2954 160.689 39.9273 158.674 41.8988C156.124 44.4264 154.842 48.0409 154.842 52.7928C154.842 56.483 155.523 59.5414 156.991 62.3471C158.019 64.3186 159.461 65.7846 161.25 66.6693C162.291 67.2001 162.679 67.2506 165.789 67.2253C168.793 67.2253 169.34 67.1748 170.422 66.6945C172.851 65.6077 174.774 63.5856 175.722 61.1338C176.75 58.4798 176.95 55.2445 176.963 41.8483C176.977 31.662 176.736 29.4883 175.201 26.4552C173.506 23.0682 170.475 21.3495 166.39 21.4C165.362 21.4253 164.014 21.5517 163.386 21.6528ZM170.822 49.8607C170.715 54.284 170.475 55.5226 169.38 57.0897C168.473 58.3787 167.498 58.859 165.722 58.8843C164.321 58.9095 164.04 58.8337 163.466 58.3282C162.091 57.1402 161.397 55.4973 161.384 53.4752C161.384 50.2652 162.545 48.1167 164.761 47.2826C166.096 46.7771 166.377 46.7265 168.78 46.7013L170.902 46.6507L170.822 49.8607Z" fill="#87888E"/>
<path d="M191.315 21.6248C187.216 22.7117 184.573 27.4636 183.665 35.4003C183.585 36.1334 183.478 42.3513 183.411 50.0605C183.358 57.4159 183.251 63.9877 183.198 64.6449L183.104 65.8582H186.615H190.127L190.046 63.0019C189.993 61.4601 189.913 57.0368 189.873 53.2201C189.833 49.4034 189.779 45.2328 189.766 43.9942C189.726 40.3798 189.9 37.0686 190.22 35.4762C190.607 33.4794 191.475 31.7353 192.516 30.8254C193.291 30.1682 193.477 30.0923 194.826 30.0923C196.121 30.1176 196.388 30.1934 197.042 30.7748C198.524 32.0639 199.378 34.2629 199.712 37.7258C199.872 39.217 199.805 53.6245 199.619 61.9909L199.525 65.8582H202.916H206.307L206.267 52.487C206.227 37.8269 206.254 37.0433 207.001 34.4651C207.495 32.7463 208.617 30.8759 209.471 30.3198C210.419 29.6879 211.954 29.7132 212.915 30.3198C213.463 30.6737 213.863 31.2045 214.464 32.3419C215.572 34.4651 215.719 35.4762 215.812 42.1744C215.879 46.901 215.679 59.3622 215.465 63.8866L215.372 65.8582H218.856H222.327L222.247 50.1364C222.18 36.1081 222.154 34.2124 221.94 32.8727C221.259 28.4494 219.924 25.4668 217.815 23.5458C216.32 22.1809 215.051 21.6248 213.102 21.4479C209.965 21.1446 207.121 22.6106 205.065 25.5426C204.531 26.3009 204.051 26.9328 204.011 26.9328C203.971 26.9328 203.61 26.3515 203.196 25.6437C202.315 24.1019 200.967 22.7875 199.578 22.0798C198.724 21.6501 198.083 21.549 195.36 21.4732C193.598 21.4479 191.782 21.4984 191.315 21.6248Z" fill="#87888E"/>
<path d="M235.864 21.7808C234.209 22.1346 232.113 22.8929 230.965 23.5248C230.364 23.8787 230.271 24.0051 230.337 24.4853C230.417 25.1678 230.938 31.866 230.938 32.1945C230.938 32.3209 231.499 32.0429 232.166 31.5626C234.422 29.945 236.065 29.3636 238.414 29.3636C240.27 29.3636 240.564 29.4142 241.271 29.945C242.887 31.1582 243.621 33.2814 243.728 37.0476L243.781 39.196L240.27 39.2213C237.306 39.2466 236.492 39.3477 235.17 39.7774C230.885 41.2434 228.308 45.1865 227.827 50.9494C227.507 54.8419 228.201 58.785 229.737 61.894C231.726 65.9129 234.102 67.3789 238.668 67.3789C243.34 67.3789 246.184 65.8118 248.093 62.1973C249.668 59.24 249.789 58.0015 249.975 43.8468C250.149 30.5516 249.455 26.9118 246.197 23.8029C243.821 21.5533 240.176 20.8456 235.864 21.7808ZM243.728 49.9889C243.688 52.9968 243.647 53.5023 243.327 54.7914C242.927 56.4343 242.286 57.4454 241.098 58.3048C239.99 59.1389 237.466 59.1389 236.385 58.3301C234.863 57.1674 234.062 54.6903 234.409 52.188C234.743 49.7614 235.544 48.3965 237.119 47.5371C238.214 46.9305 239.375 46.7283 241.725 46.6778L243.781 46.6525L243.728 49.9889Z" fill="#87888E"/>
</svg>
