<svg width="85" height="30" viewBox="0 0 85 30" fill="none" xmlns="http://www.w3.org/2000/svg">
<path d="M6.66016 24.0391V5.95312L0.605469 0.992188C1.60807 0.979167 2.75391 0.972656 4.04297 0.972656C5.33203 0.959635 6.67318 0.946615 8.06641 0.933594C9.47266 0.920573 10.8854 0.914062 12.3047 0.914062C13.737 0.901042 15.0846 0.894531 16.3477 0.894531C17.6107 0.88151 18.75 0.875 19.7656 0.875C20.7812 0.861979 21.582 0.855469 22.168 0.855469C24.4596 0.855469 26.5234 0.972656 28.3594 1.20703C30.1953 1.44141 31.8099 1.83854 33.2031 2.39844C34.4401 2.89323 35.5078 3.53776 36.4062 4.33203C37.3047 5.11328 38.0404 6.00521 38.6133 7.00781C39.1992 8.01042 39.6289 9.10417 39.9023 10.2891C40.1758 11.474 40.3125 12.7174 40.3125 14.0195C40.3125 16.4284 39.8568 18.5703 38.9453 20.4453C38.0469 22.3203 36.7643 23.9023 35.0977 25.1914C33.444 26.4805 31.4518 27.4635 29.1211 28.1406C26.8034 28.8047 24.2253 29.1367 21.3867 29.1367C21.0091 29.1367 20.3906 29.1367 19.5312 29.1367C18.6849 29.1367 17.6823 29.1302 16.5234 29.1172C15.3776 29.1172 14.1211 29.1107 12.7539 29.0977C11.3867 29.0846 9.99349 29.0716 8.57422 29.0586C7.15495 29.0586 5.75521 29.0521 4.375 29.0391C3.00781 29.026 1.74479 29.013 0.585938 29L6.66016 24.0391ZM20.7812 24.918C22.3958 24.918 23.7435 24.6576 24.8242 24.1367C25.9049 23.6159 26.7708 22.8867 27.4219 21.9492C28.0729 20.9987 28.5352 19.8724 28.8086 18.5703C29.082 17.2552 29.2188 15.8034 29.2188 14.2148C29.2188 12.7565 29.0365 11.4609 28.6719 10.3281C28.3073 9.19531 27.7799 8.23828 27.0898 7.45703C26.3997 6.67578 25.5534 6.08333 24.5508 5.67969C23.5612 5.27604 22.4349 5.07422 21.1719 5.07422H16.9531V24.918H20.7812ZM48.1445 24.0391V5.93359L42.6562 0.992188H58.2422V11.6953H68.9844V0.992188H84.1992L79.082 5.95312V24.0391L84.5703 29H68.9844V15.7773H58.2422V29H42.6562L48.1445 24.0391Z" fill="black"/>
</svg>
