<svg width="206" height="114" viewBox="0 0 206 114" fill="none" xmlns="http://www.w3.org/2000/svg">
<path d="M54.7482 0.679085C48.6653 3.20162 46.8568 3.59244 44.8018 2.91739C42.0617 2.02917 40.1711 3.09504 36.9926 7.39401C34.5265 10.6982 33.6497 12.297 32.6907 15.2103C32.0605 17.2355 31.9783 17.8039 32.1153 20.1843C32.1975 21.6765 32.3071 23.6661 32.3619 24.6609C32.4167 26.1532 32.9921 27.9651 33.6497 28.7467C33.7319 28.8533 34.2799 29.8837 34.8827 31.0561C36.0884 33.4365 36.0062 33.3299 37.842 35.817C38.5818 36.8118 39.2668 37.6289 39.3764 37.6289C39.486 37.6289 39.9792 38.3395 40.4725 39.2277C40.9657 40.1159 41.4315 40.8265 41.5411 40.8265C41.6507 40.8265 42.4179 40.9686 43.2947 41.1463C44.4182 41.395 45.4594 41.3594 47.076 40.9686C49.5421 40.4357 50.3641 39.6896 51.4053 37.0605C52.0355 35.4261 53.3782 29.102 53.3782 27.6809C53.3782 27.1835 53.6796 25.5136 54.0632 23.9859C54.4468 22.4226 54.666 20.8238 54.5838 20.433C54.5016 20.0067 53.981 19.0829 53.433 18.3724L52.474 17.0578L52.6384 14.0734C52.8302 10.4139 53.296 7.82035 53.9262 6.89661C54.2002 6.50579 54.6112 5.68863 54.8304 5.08464C55.2414 4.05431 56.0634 3.34373 58.1185 2.3134C58.8035 1.95812 59.1323 1.5673 59.1323 1.10543C59.1323 -0.209133 57.3239 -0.351246 54.7482 0.679085Z" fill="#87888E"/>
<path d="M9.81109 32.2996C9.56449 32.5127 9.31788 33.7562 9.12608 36.1011L8.85207 39.5829H8.03005C7.29023 39.6184 7.18063 39.7605 7.07103 40.8264C6.90662 42.2831 6.27641 43.6687 5.75579 43.6687C5.56399 43.6687 5.18038 43.491 4.90637 43.2423C4.46796 42.887 4.19395 42.9581 3.39933 43.491C2.60472 44.0595 2.1937 44.8056 1.15248 47.5413C0.0838523 50.4191 -0.0805518 51.1652 0.0290509 52.3732C0.631866 58.0222 7.59164 65.1989 14.8528 67.6859C19.4013 69.2137 26.3337 68.5031 30.0328 66.1227C33.0469 64.1686 36.3898 59.2302 36.3898 56.7432C36.3898 55.7128 36.1705 54.5759 35.5129 52.1245C34.7731 49.4953 33.1017 48.9979 27.7311 49.8506C24.3335 50.3836 24.0595 50.3836 22.3606 49.7796C21.3742 49.4243 20.0041 48.6782 19.3191 48.1808C18.1683 47.2926 15.0172 43.1002 14.7706 42.1409C14.7158 41.8923 14.4966 41.4304 14.2774 41.1106C13.565 40.0803 11.7291 35.5326 10.9345 32.9035C10.6331 31.8732 10.4413 31.7666 9.81109 32.2996Z" fill="#87888E"/>
<path d="M73.5177 39.6183C73.2163 39.6894 71.9285 40.0091 70.6406 40.3289C66.1469 41.4303 60.7216 44.6279 58.3925 47.5413C56.8033 49.4953 56.5567 52.4798 57.7623 54.6825L58.3103 55.6773H64.6673C70.1748 55.6418 71.4352 55.7484 73.9287 56.4235C78.8882 57.738 81.7105 60.0829 82.3955 63.4226C82.6695 64.7727 82.7243 64.8082 83.9848 64.8793C84.7246 64.8793 86.0398 65.0214 86.944 65.128C88.1497 65.3057 89.0813 65.1991 90.3691 64.7372C91.9584 64.1687 92.1502 63.9911 92.1502 63.2095C92.1502 62.6055 92.2872 62.3568 92.5612 62.3923C92.8078 62.4633 93.7394 62.1436 94.6162 61.6817C96.2055 60.9001 96.2603 60.7935 96.5891 59.1592C96.7535 58.2354 97.0549 57.2406 97.2193 56.9919C97.4385 56.6366 97.3837 55.8195 97.0001 53.7233C96.3699 50.348 95.6849 48.6071 94.1504 46.4754C91.7666 43.2067 89.7115 41.7145 85.4918 40.2934C83.1901 39.5117 82.3133 39.4052 78.4498 39.4407C76.0386 39.4762 73.8191 39.5473 73.5177 39.6183Z" fill="#87888E"/>
<path d="M118.592 40.3289C115.249 41.075 112.317 42.9936 110.015 46.0135C109.002 47.3281 108.18 48.536 108.18 48.7137C108.18 48.9268 107.96 49.4953 107.686 49.9927C105.302 54.5759 104.343 65.8385 105.659 73.335C106.7 79.1617 108.317 82.7501 111.194 85.8055C112.207 86.8714 113.112 87.7241 113.221 87.7241C113.331 87.7241 113.961 88.0438 114.619 88.4346C115.276 88.8255 117.112 89.4294 118.701 89.7492C121.414 90.3177 121.825 90.3177 125.661 89.7492C130.045 89.1097 132.402 88.257 135.745 86.0897C138.375 84.4199 138.485 84.2067 137.745 82.5369C137.416 81.7553 136.868 80.5118 136.539 79.7301C135.142 76.426 134.84 75.822 134.594 75.8575C134.457 75.8575 133.251 76.5681 131.881 77.3852C128.977 79.1972 126.867 79.6946 123.305 79.4814C121.25 79.3393 120.592 79.1261 119.962 78.5222C119.523 78.1313 119.085 77.7761 119.003 77.7761C118.893 77.7761 118.455 77.3497 117.989 76.7813C116.866 75.4312 115.961 72.9797 115.742 70.6348L115.55 68.6452L117.66 68.432C118.811 68.2899 123.853 68.1833 128.84 68.1833C133.827 68.1833 138.074 68.0412 138.293 67.8636C138.594 67.6149 138.649 66.6556 138.512 62.8185C138.019 48.8558 134.046 41.9632 125.497 40.2934C122.236 39.6539 121.661 39.6539 118.592 40.3289ZM124.867 50.4546C125.606 50.8454 126.456 51.627 126.757 52.16C127.415 53.3324 128.182 56.8497 128.182 58.7327V60.0118H121.88H115.578L115.742 57.9511C116.263 51.556 120.565 48.0386 124.867 50.4546Z" fill="#87888E"/>
<path d="M144.348 64.9857V89.1453H153.199C161.583 89.1453 162.132 89.0742 164.488 88.2926C169.502 86.5872 172.462 83.9225 174.763 78.984C178.079 71.8428 178.298 59.1945 175.202 51.698C173.01 46.3687 169.913 43.3842 164.844 41.7144C162.159 40.8617 161.803 40.8262 153.226 40.8262H144.348V64.9857ZM161.337 50.49C163.803 51.5559 165.885 54.256 166.735 57.5247C167.502 60.5091 167.721 63.9554 167.392 68.2544C167.173 71.3098 166.927 72.4468 165.913 75.1825C165.42 76.6036 163.967 78.2379 162.433 79.1262C161.118 79.9078 160.46 80.0499 157.446 80.192L153.939 80.3341V65.0923C153.939 56.7075 154.021 49.7084 154.158 49.5662C154.514 49.0688 159.501 49.7084 161.337 50.49Z" fill="#87888E"/>
<path d="M182.435 64.9857V89.1453H187.34H192.245L192.217 78.913L192.163 68.7162L198.41 68.6096L204.63 68.5386V64.2751V60.0117L198.41 59.9406L192.163 59.834V54.86V49.886L199.095 49.9926L206 50.0992V45.4804V40.8262H194.218H182.435V64.9857Z" fill="#87888E"/>
<path d="M57.2691 75.1825C54.803 77.3497 54.803 78.7709 57.2417 80.9026C59.1871 82.6079 61.5984 85.237 61.5984 85.6989C61.5984 85.9476 62.0094 86.6227 62.5026 87.1911C64.8043 89.9623 66.3113 97.2102 65.3249 100.87C64.6399 103.428 64.6673 103.499 67.0785 104.707C68.2841 105.346 69.435 105.986 69.6268 106.199C69.7912 106.412 70.9146 107.478 72.0928 108.544C73.2437 109.61 74.2027 110.675 74.2027 110.853C74.2027 111.031 74.3397 111.173 74.5041 111.173C74.6685 111.173 75.1891 111.67 75.6549 112.274C76.4495 113.34 76.5866 113.376 78.0936 113.162C79.8746 112.949 81.7379 111.954 83.0257 110.569C83.2175 110.356 84.0669 109.929 84.889 109.681C86.4508 109.148 86.4234 109.183 87.6564 105.808C88.04 104.707 87.1632 99.5195 86.0946 96.6772C84.2587 91.8453 82.3133 88.861 78.1758 84.5265C75.4357 81.6131 73.8465 80.2631 71.216 78.6643C70.0652 77.9537 68.9418 77.2431 68.6952 77.0655C67.5717 76.2839 63.9822 74.9693 62.0094 74.5785C60.8038 74.3653 59.5707 74.1166 59.2693 74.0456C58.9679 73.9745 58.0637 74.4719 57.2691 75.1825Z" fill="#87888E"/>
<path d="M39.4038 77.6695C39.0202 77.7405 38.0612 78.2024 37.2666 78.7353C36.061 79.517 35.5951 80.1209 34.3073 82.6079C32.3619 86.4095 30.0602 89.1451 27.5119 90.7439C23.9225 92.9822 19.3739 94.0836 16.3873 93.4441C14.5514 93.0533 12.5786 92.1295 11.9484 91.3834C11.4825 90.8505 11.4551 90.8505 11.4551 91.5255C11.4551 91.8808 11.6469 93.0177 11.8661 93.977C12.5512 97.0324 13.428 103.072 13.291 103.783C13.1814 104.28 13.4828 104.92 14.3048 106.021C14.935 106.838 15.62 108.046 15.8393 108.65C16.1407 109.681 16.2777 109.752 17.5107 109.752C18.5793 109.752 18.8533 109.894 18.9903 110.462C19.1273 111.066 19.4013 111.173 20.9358 111.173C22.0866 111.173 23.0182 111.386 23.5936 111.777C24.9911 112.736 29.7588 112.771 31.8687 111.812C32.7729 111.386 33.7045 110.853 33.9237 110.64C34.5265 110 36.4172 108.828 37.2392 108.544C38.8832 108.046 42.6371 101.9 43.5688 98.1693C44.1168 96.0732 44.199 94.9718 44.1716 90.5663C44.1716 84.7752 43.514 80.5828 42.3631 78.8774C42.0069 78.38 41.7329 77.9182 41.7329 77.9182C41.7329 77.7405 39.9519 77.5274 39.4038 77.6695Z" fill="#87888E"/>
</svg>
