<svg width="30" height="32" viewBox="0 0 30 32" fill="none" xmlns="http://www.w3.org/2000/svg">
<path d="M2.28516 0.0375873C1.25391 0.207507 0.457031 0.917528 0.111328 1.97953C0.00585938 2.30116 0 2.76844 0 15.5124C0 28.2564 0.00585938 28.7237 0.111328 29.0453C0.398438 29.9313 0.978516 30.5442 1.83398 30.8841L2.16797 31.0176H14.9707H27.7734L28.1074 30.8841C28.9629 30.5442 29.543 29.9313 29.8301 29.0453C29.9355 28.7237 29.9414 28.2564 29.9414 15.5124C29.9414 2.76844 29.9355 2.30116 29.8301 1.97953C29.543 1.09352 28.9629 0.480592 28.1074 0.140753L27.7734 0.00724454L15.1758 0.00117598C8.25 -0.00489258 2.44922 0.0133131 2.28516 0.0375873ZM7.44141 3.46632C8.6543 3.73334 9.67969 4.78927 9.92578 6.03332C10.3828 8.3151 8.39062 10.427 6.21094 9.97182C5.03906 9.72301 4.13086 8.90982 3.74414 7.75073C3.5625 7.21062 3.53906 6.36709 3.69141 5.82092C3.9375 4.92278 4.57031 4.146 5.38477 3.73941C6.11133 3.37529 6.68555 3.30247 7.44141 3.46632ZM22.8223 11.3433C23.8125 11.6103 24.4395 11.9744 25.0664 12.6481C26.0391 13.6797 26.5488 15.0694 26.7539 17.242C26.8066 17.7942 26.8301 19.3842 26.8359 22.5519C26.8359 26.8121 26.8301 27.0852 26.7305 27.2429C26.6719 27.34 26.543 27.4675 26.4375 27.5282C26.2617 27.6435 26.127 27.6495 24.2988 27.6495C22.1719 27.6495 22.1309 27.6435 21.8906 27.2976C21.7793 27.1276 21.7734 27.0184 21.75 22.6672C21.7324 18.8865 21.7148 18.1522 21.6387 17.8185C21.416 16.8839 21.0645 16.277 20.5371 15.9493C20.0801 15.6702 19.8281 15.6034 19.1602 15.6095C18.3926 15.6095 18.0352 15.7491 17.5254 16.2467C17.1035 16.6533 16.8047 17.2116 16.5938 17.9884C16.4707 18.4435 16.4648 18.577 16.4355 22.7947C16.4062 26.8485 16.4004 27.1458 16.3008 27.2976C16.0781 27.6313 15.9727 27.6495 13.9336 27.6495C11.8477 27.6495 11.7773 27.6374 11.5605 27.2187C11.4609 27.0245 11.4551 26.6604 11.4551 19.5298C11.4551 11.228 11.4316 11.756 11.8301 11.5011C12 11.3919 12.1582 11.3858 13.9453 11.3858C15.7617 11.3858 15.8906 11.3919 16.0664 11.5072C16.3711 11.6953 16.4355 11.8956 16.4355 12.6723L16.4414 13.3581L16.5703 13.176C17.0039 12.557 17.7539 11.9259 18.3809 11.6407C19.207 11.2705 19.9688 11.143 21.2402 11.1673C22.1016 11.1855 22.3535 11.2159 22.8223 11.3433ZM8.88281 11.5254C8.99414 11.5982 9.12891 11.756 9.1875 11.8713C9.28125 12.0715 9.28711 12.5327 9.27539 19.5905C9.25781 27.073 9.25781 27.0973 9.13477 27.2672C8.87109 27.6374 8.79492 27.6495 6.7793 27.6495C4.79883 27.6495 4.78125 27.6495 4.48242 27.3158L4.33594 27.1519L4.31836 19.5662C4.30664 12.2475 4.30664 11.9684 4.41211 11.7985C4.47656 11.7014 4.59961 11.5678 4.69336 11.5011C4.85156 11.3919 4.99219 11.3858 6.77344 11.3858C8.66016 11.3858 8.68359 11.3858 8.88281 11.5254Z" fill="white"/>
</svg>
