<svg width="279" height="63" viewBox="0 0 279 63" fill="none" xmlns="http://www.w3.org/2000/svg">
<path d="M12.7264 0.242909C8.55658 0.657583 2.74369 1.84236 0.418528 2.79019L0 2.96791V8.12171V13.2755H7.44051H14.881V37.5635V61.8516H19.0663H23.2516V37.5635V13.2755H30.6921H38.1326V8.12171V2.96791L37.7141 2.79019C35.9159 2.07932 31.2501 0.983398 27.9794 0.539105C24.9567 0.0948117 15.9661 -0.053286 12.7264 0.242909Z" fill="#87888E"/>
<path d="M207.947 0.123654C202.351 0.775284 197.127 1.90083 195.592 2.78942C195.329 2.93752 195.313 4.56659 195.313 31.6092V60.3106L196.832 60.7845C198.94 61.4657 199.049 61.4954 201.204 61.9989C205.094 62.8579 208.768 63.1244 214.845 62.9467C221.076 62.769 224.331 62.2951 228.377 60.9622C229.4 60.6364 230.284 60.3698 230.361 60.3698C230.439 60.3698 230.501 58.0595 230.501 55.1864V50.003H217.092H203.684L203.715 43.2497L203.761 36.5261L212.411 36.4372L221.045 36.378V30.4541V24.5302H212.364H203.684L203.715 18.8136L203.761 13.1266L217.061 13.0378L230.346 12.9785V7.97284C230.346 3.44105 230.315 2.93752 230.082 2.78942C229.152 2.25627 225.246 1.2492 221.975 0.656806C219.572 0.242133 210.055 -0.113302 207.947 0.123654Z" fill="#87888E"/>
<path d="M259.333 0.154033C253.737 0.776043 247.769 2.84941 245.8 4.92278C244.374 6.37414 243.615 8.95104 243.351 13.157C243.118 16.5929 243.273 26.5154 243.568 28.5296C244.235 33.0613 245.397 35.1347 247.955 36.2899C248.869 36.7046 250.59 36.7934 260.387 36.8823L271.733 37.0304V43.6651V50.2999H257.472H243.211V55.3056V60.2817L244.498 60.7556C248.466 62.207 251.536 62.7401 256.713 62.9475C261.735 63.1252 264.014 62.8882 268.401 61.6738C273.191 60.3706 276.213 58.5342 277.453 56.1942C278.74 53.7654 279.112 49.7668 278.972 40.2293C278.833 30.988 278.244 28.1149 276.089 25.9823C274.508 24.4124 274.539 24.4124 262.076 24.3236L250.497 24.2051L250.528 18.5182L250.574 12.8312L264.572 12.7423L278.554 12.6831V7.8255C278.554 3.4418 278.523 2.93827 278.29 2.79017C277.732 2.46436 274.384 1.45729 272.353 1.013C268.292 0.124413 262.851 -0.231021 259.333 0.154033Z" fill="#87888E"/>
<path d="M54.4086 0.864884C53.773 1.01298 52.533 1.39804 51.6494 1.75347L50.0683 2.4051L50.0993 31.5804L50.1458 60.7852L50.9209 61.1703C52.3625 61.8812 54.4706 62.4439 56.4702 62.6513L58.4389 62.829V49.9149V36.9711H68.9796H79.5203V49.9149V62.829L81.5044 62.6513C83.2871 62.4735 86.3098 61.6738 87.5033 61.0222L87.9684 60.7852V31.61V2.46434L86.8833 1.96081C85.3332 1.24994 82.3415 0.539069 80.8224 0.539069H79.5203V12.8312V25.1233H68.9796H58.4389V12.8312V0.539069L57.0128 0.568689C56.2222 0.598308 55.0441 0.716786 54.4086 0.864884Z" fill="#87888E"/>
<path d="M106.554 30.988C101.268 49.9445 98.3696 60.5779 98.4936 60.6964C99.1756 61.4665 104.012 62.7401 106.089 62.7401L107.19 62.7105L113.685 37.5635C119.808 13.8383 120.211 12.3869 120.583 12.3869C120.955 12.4165 121.404 14.0752 127.496 37.6227L134.006 62.829L136.115 62.6513C138.874 62.4143 142.827 61.2295 143.183 60.5779C143.214 60.489 139.509 47.1602 134.921 30.9287L126.581 1.42766H120.691H114.785L106.554 30.988Z" fill="#87888E"/>
<path d="M153.46 30.7511V60.0745L153.817 60.341C154.313 60.6965 157.692 61.7628 160.126 62.3255C161.459 62.6217 164.156 62.8587 167.566 62.9476C174.511 63.1549 178.587 62.6514 183.346 60.9334L185.082 60.3114V54.8614V49.4114H173.534H161.986V25.4196V1.42776H157.723H153.46V30.7511Z" fill="#87888E"/>
</svg>
