<svg width="285" height="65" viewBox="0 0 285 65" fill="none" xmlns="http://www.w3.org/2000/svg">
<path d="M46.523 0.32823L45.6486 0.190438C41.1097 -0.131089 37.362 1.84401 36.1544 5.47267C32.7398 15.5778 29.7833 25.7748 26.6186 35.9259C23.3289 25.4074 19.9976 14.8429 16.708 4.32436C15.7502 1.29282 12.2107 -0.544484 8.67123 0.144503L5.25666 0.83349C1.5506 1.56841 -0.739665 4.82962 0.218081 7.99896C5.54815 25.5452 10.8782 43.0455 16.2083 60.5917C16.9995 63.1639 19.6645 64.9552 22.7459 64.9552L29.0754 64.9552H30.5328C33.6143 64.9552 36.2793 63.1639 37.0705 60.5917C42.2756 43.4588 47.4808 26.2801 52.6859 9.14727C53.8519 5.33488 50.8121 1.20095 46.523 0.32823Z" fill="#87888E"/>
<path opacity="0.2" d="M44.3982 36.4308L43.1906 40.3351L33.6964 13.0971L36.0699 5.79382L44.3982 36.4308Z" fill="#87888E"/>
<path d="M83.5828 0.878169L80.1682 0.189182C76.6287 -0.499806 73.0892 1.33748 72.1315 4.36903C68.8418 14.8876 65.5105 25.452 62.2209 35.9706C59.0562 25.8195 55.8498 15.6684 52.6851 5.51734C51.5191 1.84274 47.4799 -0.545747 42.941 0.281038L42.2331 0.418844C37.7775 1.29156 34.9876 5.33362 36.1535 9.14602C41.3587 26.3248 46.5638 43.4576 51.769 60.6363C52.5601 63.2085 55.2252 64.9999 58.3066 64.9999L64.6361 64.9999H66.0935C69.175 64.9999 71.84 63.2085 72.6312 60.6363C77.9612 43.0901 83.2913 25.5898 88.6214 8.04363C89.5791 4.82835 87.2889 1.61309 83.5828 0.878169Z" fill="#87888E"/>
<path d="M188.308 51.1259C188.308 51.574 188.185 51.9359 187.938 52.2117C187.692 52.4529 187.353 52.5736 186.922 52.5736H182.856C182.425 52.5736 182.086 52.4357 181.84 52.16C181.593 51.8842 181.47 51.5051 181.47 51.0225V15.0382C181.47 14.5557 181.593 14.1765 181.84 13.9008C182.086 13.6251 182.425 13.4872 182.856 13.4872H186.922C187.353 13.4872 187.692 13.6251 187.938 13.9008C188.185 14.1765 188.308 14.5557 188.308 15.0382V27.0847C189.047 26.0162 190.095 25.1545 191.45 24.4996C192.805 23.8447 194.33 23.5173 196.024 23.5173C198.58 23.5173 200.829 24.1722 202.769 25.482C204.71 26.7573 206.204 28.5323 207.251 30.8072C208.268 33.0821 208.776 35.5982 208.776 38.3556C208.776 41.1475 208.268 43.6637 207.251 45.9041C206.235 48.1445 204.772 49.9196 202.862 51.2293C200.891 52.5391 198.611 53.194 196.024 53.194C194.391 53.194 192.851 52.8493 191.404 52.16C189.956 51.4706 188.924 50.6606 188.308 49.73V51.1259ZM188.031 38.3556C188.031 40.8373 188.647 42.802 189.879 44.2496C191.142 45.6628 192.851 46.3694 195.007 46.3694C197.071 46.3694 198.75 45.6283 200.043 44.1462C201.337 42.6296 201.984 40.6995 201.984 38.3556C201.984 35.9429 201.353 33.9955 200.09 32.5134C198.827 31.0313 197.133 30.2902 195.007 30.2902C192.913 30.2902 191.219 31.0313 189.925 32.5134C188.662 33.9955 188.031 35.9429 188.031 38.3556Z" fill="#87888E"/>
<path d="M221.985 16.9512C221.985 18.1231 221.615 19.1227 220.876 19.9499C220.137 20.7426 219.243 21.139 218.196 21.139C217.118 21.139 216.194 20.7426 215.424 19.9499C214.685 19.1227 214.315 18.1231 214.315 16.9512C214.315 15.8138 214.685 14.8487 215.424 14.0559C216.194 13.2287 217.118 12.8151 218.196 12.8151C219.243 12.8151 220.137 13.2287 220.876 14.0559C221.615 14.8487 221.985 15.8138 221.985 16.9512ZM216.117 52.5736C215.686 52.5736 215.347 52.4357 215.1 52.16C214.854 51.8842 214.731 51.5051 214.731 51.0225V25.7405C214.731 25.2579 214.854 24.8788 215.1 24.603C215.347 24.3273 215.686 24.1894 216.117 24.1894H220.275C220.706 24.1894 221.045 24.3273 221.292 24.603C221.538 24.8788 221.661 25.2579 221.661 25.7405V51.0225C221.661 51.5051 221.538 51.8842 221.292 52.16C221.045 52.4357 220.706 52.5736 220.275 52.5736H216.117Z" fill="#87888E"/>
<path d="M242.115 23.6207C245.564 23.6207 248.09 24.6547 249.692 26.7228C251.324 28.7564 252.141 31.7723 252.141 35.7706V51.0225C252.141 51.5051 252.017 51.8842 251.771 52.16C251.525 52.4357 251.186 52.5736 250.754 52.5736H246.458C246.026 52.5736 245.688 52.4357 245.441 52.16C245.195 51.8842 245.072 51.5051 245.072 51.0225V35.7706C245.072 31.9447 243.439 30.0317 240.174 30.0317C238.757 30.0317 237.571 30.6349 236.616 31.8412C235.692 33.0476 235.261 34.9433 235.323 37.5284V51.0225C235.323 51.5051 235.2 51.8842 234.953 52.16C234.707 52.4357 234.368 52.5736 233.937 52.5736H229.825C229.393 52.5736 229.055 52.4357 228.808 52.16C228.562 51.8842 228.439 51.5051 228.439 51.0225V25.6888C228.439 25.2062 228.562 24.8271 228.808 24.5513C229.055 24.2756 229.393 24.1377 229.825 24.1377H233.937C234.368 24.1377 234.707 24.2756 234.953 24.5513C235.2 24.8271 235.323 25.2062 235.323 25.6888V26.6711C236.154 25.7405 237.186 24.9994 238.418 24.4479C239.681 23.8964 240.913 23.6207 242.115 23.6207Z" fill="#87888E"/>
<path d="M279.548 52.5736C279.117 52.5736 278.778 52.4357 278.532 52.16C278.285 51.8842 278.162 51.5051 278.162 51.0225V49.73C277.546 50.6606 276.514 51.4706 275.066 52.16C273.619 52.8493 272.079 53.194 270.446 53.194C267.859 53.194 265.595 52.5564 263.654 51.281C261.714 49.9713 260.235 48.1617 259.219 45.8524C258.202 43.612 257.694 41.1131 257.694 38.3556C257.694 35.5638 258.202 33.0476 259.219 30.8072C260.266 28.5668 261.745 26.7917 263.654 25.482C265.564 24.1722 267.828 23.5173 270.446 23.5173C272.14 23.5173 273.665 23.8447 275.02 24.4996C276.376 25.1545 277.423 26.0162 278.162 27.0847V15.0382C278.162 14.5557 278.285 14.1765 278.532 13.9008C278.778 13.6251 279.117 13.4872 279.548 13.4872H283.614C284.045 13.4872 284.384 13.6251 284.63 13.9008C284.877 14.1765 285 14.5557 285 15.0382V51.0225C285 51.5051 284.877 51.8842 284.63 52.16C284.384 52.4357 284.045 52.5736 283.614 52.5736H279.548ZM278.439 38.3556C278.439 35.9429 277.792 33.9955 276.499 32.5134C275.236 31.0313 273.557 30.2902 271.463 30.2902C269.337 30.2902 267.643 31.0313 266.38 32.5134C265.117 33.9955 264.486 35.9429 264.486 38.3556C264.486 40.6995 265.133 42.6296 266.427 44.1462C267.72 45.6283 269.399 46.3694 271.463 46.3694C273.619 46.3694 275.313 45.6628 276.545 44.2496C277.808 42.802 278.439 40.8373 278.439 38.3556Z" fill="#87888E"/>
<path d="M122.053 51.638C121.776 52.224 121.468 52.517 121.129 52.517C120.76 52.517 120.452 52.1895 120.205 51.5346L110.872 26.1491C110.78 25.8734 110.734 25.6494 110.734 25.477C110.734 25.1323 110.842 24.8566 111.057 24.6498C111.273 24.443 111.581 24.3396 111.981 24.3396H116.417C117.218 24.3396 117.741 24.7532 117.988 25.5804L121.822 36.9548L127.043 24.96C127.321 24.3741 127.629 24.0811 127.967 24.0811C128.337 24.0811 128.645 24.3741 128.891 24.96L134.205 37.0065L138.178 25.5804C138.425 24.7532 138.948 24.3396 139.749 24.3396H144.138C144.539 24.3396 144.847 24.443 145.062 24.6498C145.278 24.8566 145.386 25.1323 145.386 25.477C145.386 25.6494 145.34 25.8734 145.247 26.1491L135.822 51.5863C135.606 52.2067 135.314 52.517 134.944 52.517C134.574 52.517 134.251 52.224 133.974 51.638L127.967 38.7643L122.053 51.638Z" fill="#87888E"/>
<path d="M162.388 53.3959C160.232 53.3959 158.122 52.8961 156.058 51.8965C153.995 50.897 152.254 49.3459 150.837 47.2434C149.328 45.0375 148.573 42.1422 148.573 38.5575C148.573 35.6278 149.174 33.0427 150.375 30.8023C151.607 28.5619 153.271 26.8385 155.365 25.6321C157.46 24.3913 159.801 23.7709 162.388 23.7709C164.667 23.7709 166.793 24.3396 168.764 25.477C170.766 26.58 172.399 28.1827 173.661 30.2853C174.493 31.664 175.032 33.0082 175.279 34.318C175.525 35.6278 175.648 37.1616 175.648 38.9194C175.648 39.6433 175.479 40.2464 175.14 40.729C174.801 41.2115 174.324 41.4528 173.708 41.4528H155.458C155.796 43.2451 156.643 44.5549 157.999 45.3821C159.354 46.2094 160.817 46.623 162.388 46.623C163.651 46.623 164.729 46.4162 165.622 46.0026C166.515 45.5889 167.316 45.003 168.025 44.2447C168.425 43.8656 168.795 43.676 169.134 43.676C169.411 43.676 169.688 43.7794 169.965 43.9862L172.968 45.9509C173.461 46.2611 173.708 46.6402 173.708 47.0883C173.708 47.364 173.584 47.6915 173.338 48.0706C170.504 51.6208 166.854 53.3959 162.388 53.3959ZM162.342 30.5438C160.463 30.5438 158.907 31.0608 157.675 32.0948C156.474 33.1289 155.796 34.4214 155.642 35.9724H168.348C168.256 35.0418 167.948 34.1629 167.424 33.3357C166.9 32.5084 166.207 31.8363 165.345 31.3193C164.483 30.8023 163.481 30.5438 162.342 30.5438Z" fill="#87888E"/>
</svg>
